<svg width="104" height="64" viewBox="0 0 104 64" fill="none" xmlns="http://www.w3.org/2000/svg">
<path d="M69.1616 6.22601C63.5963 6.22601 59.0535 10.7328 57.24 12.8303C57.1034 12.5153 56.8929 12.2379 56.6263 12.0215C56.8086 11.5535 57.0015 11.0185 57.1607 10.4037C57.2248 10.1759 57.262 9.92839 57.3143 9.68314C57.352 9.43226 57.3761 9.16958 57.3992 8.90408C57.3936 8.63295 57.4144 8.3607 57.3829 8.07664C57.3559 7.79258 57.3058 7.52764 57.2563 7.25708C57.0561 6.1917 56.7664 5.10045 56.7782 4.02439C56.7895 3.49564 56.8862 2.96689 57.2153 2.62377C57.5336 2.27164 58.0624 2.08489 58.576 2.03089C59.0963 1.97914 59.6312 2.03145 60.0998 2.20977C60.57 2.38133 60.9806 2.66989 61.182 3.07995C61.6202 3.89783 61.4183 4.88951 60.9435 5.4267C60.729 5.67993 60.4297 5.84648 60.1015 5.89527C59.809 5.91214 59.5457 5.86489 59.3556 5.77039C59.1542 5.69501 59.0192 5.59433 58.9247 5.53189C58.8302 5.46945 58.7813 5.4357 58.7813 5.4357L58.9202 5.54089C59.0108 5.60951 59.1401 5.71751 59.3404 5.80583C59.5288 5.91214 59.7966 5.9802 60.1099 5.97964C60.468 5.94617 60.8018 5.78387 61.0493 5.52289C61.5943 4.96602 61.8885 3.92201 61.4464 2.95002C61.2343 2.45277 60.7601 2.0787 60.2432 1.86102C59.7223 1.63208 59.1362 1.53983 58.5394 1.56739C58.233 1.5807 57.9302 1.63869 57.6405 1.73952C57.3302 1.83976 57.047 2.00965 56.8125 2.2362C56.3119 2.71658 56.1718 3.40002 56.1274 3.99233C56.0537 5.20789 56.3057 6.34301 56.4475 7.3887C56.4823 7.64745 56.5166 7.90451 56.5273 8.13964C56.5442 8.37364 56.5121 8.61326 56.5088 8.84164C56.4767 9.0717 56.4463 9.29783 56.403 9.51776C56.3451 9.73601 56.3074 9.94976 56.2393 10.1545C56.086 10.6453 55.9069 11.1277 55.7027 11.5996C55.5823 11.5782 55.4591 11.5625 55.3326 11.5625C55.206 11.5625 55.0828 11.5782 54.9625 11.5996C54.7583 11.1277 54.5792 10.6453 54.4258 10.1545C54.3578 9.94976 54.3201 9.73601 54.2621 9.51776C54.2194 9.29783 54.1885 9.07226 54.1564 8.84164C54.153 8.61326 54.121 8.37364 54.1378 8.13964C54.1485 7.90451 54.1828 7.64745 54.2177 7.3887C54.3595 6.34301 54.6115 5.20789 54.5378 3.99233C54.4933 3.40002 54.3533 2.71714 53.8526 2.2362C53.6181 2.00965 53.3349 1.83976 53.0246 1.73952C52.735 1.63869 52.4322 1.5807 52.1258 1.56739C51.5284 1.53983 50.9423 1.63208 50.422 1.86102C49.905 2.0787 49.4308 2.45277 49.2188 2.95002C48.7766 3.92201 49.0708 4.96602 49.6159 5.52289C49.8634 5.78387 50.1972 5.94617 50.5553 5.97964C50.8691 5.9802 51.1363 5.9127 51.3248 5.80583C51.525 5.71808 51.6544 5.60895 51.745 5.54089L51.8839 5.4357L51.7393 5.53189C51.6448 5.59433 51.5104 5.69501 51.3085 5.77039C51.1183 5.86489 50.8545 5.91214 50.5626 5.89527C50.2343 5.84648 49.935 5.67993 49.7205 5.4267C49.2458 4.88895 49.0438 3.89783 49.482 3.07995C49.6828 2.66989 50.094 2.38077 50.5643 2.20977C51.0328 2.03145 51.5678 1.97914 52.0881 2.03089C52.6016 2.08489 53.1304 2.27164 53.4488 2.62377C53.7778 2.96689 53.8751 3.49508 53.8858 4.02439C53.8976 5.10045 53.6085 6.1917 53.4077 7.25708C53.3582 7.52764 53.3081 7.79258 53.2811 8.07664C53.2491 8.3607 53.2699 8.63239 53.2648 8.90408C53.2879 9.16958 53.3121 9.43226 53.3498 9.68314C53.4026 9.92895 53.4392 10.1759 53.5033 10.4037C53.6625 11.0191 53.8555 11.5535 54.0377 12.0215C53.7711 12.2379 53.5606 12.5153 53.424 12.8303C51.6128 10.7322 47.07 6.22601 41.5046 6.22601C36.171 6.22601 39.0763 12.3055 40.9652 16.3583C42.8541 20.4111 40.0843 23.5566 41.7988 25.094C43.533 26.6476 46.9783 24.3188 50.2774 23.2855C49.2621 23.6601 48.0032 24.2508 46.444 25.1491C39.2828 29.2767 44.2176 30.3494 45.9495 33.0353C47.6651 35.6988 54.6227 37.9544 55.2786 28.037C55.2966 28.0386 55.3146 28.0443 55.3331 28.0443C55.3517 28.0443 55.3691 28.0386 55.3877 28.037C56.0436 37.9544 63.0011 35.6988 64.7168 33.0353C66.4487 30.3499 71.3841 29.2767 64.2223 25.1491C62.6631 24.2502 61.4036 23.6601 60.3889 23.2855C63.688 24.3188 67.1333 26.6476 68.8675 25.094C70.5825 23.5566 67.8128 20.4117 69.7011 16.3583C71.5894 12.305 74.4953 6.22601 69.1616 6.22601ZM41.5586 10.0645C41.1345 10.0448 40.8094 9.71183 40.8325 9.32258C40.8544 8.93051 41.2155 8.63183 41.6396 8.65208C42.0626 8.67176 42.3878 9.00476 42.3653 9.39458C42.3428 9.78439 41.9816 10.0836 41.5586 10.0645ZM43.5943 11.0292C44.2046 11.0579 44.6743 11.5377 44.6423 12.1013C44.6096 12.665 44.0882 13.0981 43.4773 13.0694C42.8648 13.0396 42.3956 12.5581 42.4283 11.9939C42.4598 11.4325 42.9818 10.9994 43.5943 11.0292ZM42.4311 15.059C42.4508 14.6939 42.7905 14.4126 43.1865 14.4329C43.5831 14.4503 43.8868 14.7631 43.8666 15.1259C43.8458 15.4915 43.5071 15.7728 43.1106 15.7531C42.7146 15.734 42.4097 15.4229 42.4311 15.059ZM44.1298 22.2252C43.7057 22.2398 43.3496 21.9349 43.3356 21.5446C43.3204 21.1542 43.6523 20.8268 44.0758 20.8122C44.5 20.7981 44.8549 21.1041 44.8701 21.4928C44.8841 21.8849 44.5534 22.2134 44.1298 22.2252ZM44.343 19.2822C43.636 19.3058 43.0448 18.7968 43.0195 18.1465C42.9958 17.4985 43.5482 16.9501 44.253 16.927C44.9601 16.9062 45.5518 17.4136 45.576 18.0627C45.6002 18.7152 45.0484 19.2597 44.343 19.2822ZM47.0278 17.7938C45.7791 16.5625 43.8542 15.626 46.0513 13.4609C48.0083 11.5321 40.8865 8.16664 45.0754 8.16664C47.7748 8.16664 51.1318 11.2401 53.253 13.5205C53.2429 13.6088 53.2238 13.6932 53.2238 13.786C53.2238 14.4526 53.4769 14.524 53.8802 14.438C53.7756 14.6376 53.6923 14.875 53.6186 15.1293C52.0133 13.975 49.6592 12.6475 47.2978 12.6374C47.2978 12.6374 50.3083 12.9035 53.5056 15.5585C53.4285 15.9451 53.373 16.3357 53.3391 16.7285C51.5183 16.2447 49.0455 15.9033 46.8956 16.7116C46.8956 16.7116 49.6817 15.9246 53.3014 17.1486C53.2673 17.6524 53.2465 18.1569 53.239 18.6618C51.3692 18.8811 48.8875 19.4819 47.0571 21.076C47.0571 21.076 49.4663 19.2822 53.2328 19.0786C53.2265 19.6427 53.2237 20.2069 53.2243 20.7711C53.2243 21.0169 53.2322 21.2549 53.239 21.4939C52.9003 21.4866 52.4565 21.5502 51.8063 21.7465C41.2521 24.9331 48.5888 19.3328 47.0278 17.7938ZM44.8656 29.5208C44.5303 29.5208 44.2592 29.2829 44.2592 28.9887C44.2592 28.6939 44.5303 28.4543 44.8656 28.4543C45.2008 28.4543 45.4725 28.6939 45.4725 28.9887C45.4725 29.2829 45.2008 29.5208 44.8656 29.5208ZM47.0419 32.5533C46.3562 32.5533 45.7999 32.065 45.7999 31.462C45.7999 30.859 46.3562 30.3702 47.0419 30.3702C47.7287 30.3702 48.2845 30.8584 48.2845 31.462C48.2845 32.0656 47.7281 32.5533 47.0419 32.5533ZM49.5608 34.3471C49.1389 34.3471 48.7958 34.0461 48.7958 33.6754C48.7958 33.3036 49.1389 33.0027 49.5608 33.0027C49.9826 33.0027 50.3258 33.3036 50.3258 33.6754C50.3263 34.0461 49.9832 34.3471 49.5608 34.3471ZM49.068 31.0874C48.5393 29.3543 46.2763 30.13 46.2763 27.5566C46.2763 25.4118 51.0958 23.7035 53.3329 23.0262C53.3835 23.551 53.4465 24.0545 53.5281 24.5196C51.5042 25.2762 49.2356 26.3911 47.6865 27.9638C47.6865 27.9638 49.7644 26.1318 53.5843 24.838C53.7182 25.5254 53.8875 26.1216 54.081 26.6144C52.7743 27.7006 51.5351 29.0067 50.8354 30.467C50.8354 30.467 51.8282 28.7682 54.1975 26.8928C54.4253 27.3968 54.6835 27.7523 54.9602 27.9244C53.6811 34.5383 49.5152 32.5533 49.068 31.0874ZM61.1055 34.3471C60.6831 34.3471 60.3405 34.0461 60.3405 33.6754C60.3405 33.3036 60.6831 33.0027 61.1055 33.0027C61.5274 33.0027 61.8705 33.3036 61.8705 33.6754C61.8705 34.0461 61.5274 34.3471 61.1055 34.3471ZM65.8007 28.4543C66.136 28.4543 66.4071 28.6939 66.4071 28.9887C66.4071 29.2829 66.136 29.5208 65.8007 29.5208C65.4655 29.5208 65.1938 29.2829 65.1938 28.9887C65.1938 28.6934 65.4655 28.4543 65.8007 28.4543ZM64.8664 31.4614C64.8664 32.0644 64.3101 32.5527 63.6244 32.5527C62.9376 32.5527 62.3818 32.0644 62.3818 31.4614C62.3818 30.8584 62.9376 30.3696 63.6244 30.3696C64.3101 30.3696 64.8664 30.8579 64.8664 31.4614ZM64.39 27.5566C64.39 30.13 62.1276 29.3543 61.5983 31.0874C61.1511 32.5527 56.9852 34.5383 55.7055 27.925C55.9823 27.7529 56.2405 27.3974 56.4683 26.8934C58.8375 28.7688 59.8303 30.4675 59.8303 30.4675C59.1311 29.0073 57.892 27.7011 56.5847 26.6149C56.7782 26.1222 56.9475 25.5254 57.0814 24.8386C60.9013 26.1323 62.9792 27.9644 62.9792 27.9644C61.4301 26.3916 59.1615 25.2768 57.1376 24.5202C57.2192 24.055 57.2822 23.551 57.3328 23.0268C59.5699 23.7035 64.39 25.4112 64.39 27.5566ZM58.8606 21.7471C58.2103 21.5502 57.7665 21.4872 57.4279 21.4945C57.4352 21.2555 57.4425 21.017 57.4425 20.7717C57.4433 20.1867 57.4405 19.6225 57.4341 19.0791C61.2 19.2822 63.6098 21.0766 63.6098 21.0766C61.7794 19.4825 59.2976 18.8817 57.4279 18.6623C57.4199 18.1575 57.3991 17.653 57.3655 17.1492C60.9846 15.9246 63.7706 16.7121 63.7706 16.7121C61.6208 15.9038 59.148 16.2453 57.3272 16.729C57.2933 16.3362 57.2377 15.9456 57.1607 15.559C60.3585 12.9035 63.3685 12.638 63.3685 12.638C61.0071 12.6486 58.6525 13.9756 57.0476 15.1298C56.974 14.8756 56.8907 14.6382 56.7861 14.4385C57.1894 14.524 57.4425 14.4526 57.4425 13.7866C57.4425 13.6938 57.4234 13.61 57.4133 13.5211C59.5345 11.2407 62.8909 8.1672 65.5909 8.1672C69.7793 8.1672 62.658 11.5321 64.615 13.4615C66.8115 15.6265 64.8866 16.5631 63.6385 17.7944C62.0775 19.3328 69.4142 24.9331 58.8606 21.7471ZM66.5365 22.2252C66.1129 22.2134 65.7821 21.8849 65.7962 21.4928C65.8114 21.1041 66.1663 20.7981 66.5905 20.8122C67.0146 20.8263 67.3465 21.1536 67.3307 21.5446C67.3166 21.9355 66.9606 22.2404 66.5365 22.2252ZM66.3233 19.2822C65.6179 19.2597 65.0661 18.7152 65.0903 18.0627C65.1145 17.4136 65.7062 16.9062 66.4133 16.927C67.1181 16.9501 67.6705 17.4985 67.6468 18.1465C67.6215 18.7968 67.0303 19.3058 66.3233 19.2822ZM67.5557 15.7531C67.1591 15.7728 66.8205 15.4915 66.7997 15.1259C66.7795 14.7625 67.0832 14.4503 67.4798 14.4329C67.8758 14.4126 68.2155 14.6939 68.2352 15.059C68.2566 15.4229 67.9517 15.734 67.5557 15.7531ZM67.189 13.0688C66.5781 13.0981 66.0561 12.6644 66.024 12.1008C65.992 11.5371 66.4616 11.0573 67.072 11.0286C67.6845 10.9988 68.2065 11.432 68.238 11.9933C68.2706 12.5581 67.8015 13.0396 67.189 13.0688ZM69.1076 10.0645C68.6846 10.0836 68.323 9.78495 68.301 9.39458C68.2785 9.00476 68.6036 8.67176 69.0266 8.65208C69.4508 8.63183 69.8119 8.93051 69.8338 9.32258C69.8569 9.71183 69.5318 10.0448 69.1076 10.0645Z" fill="black"/>
<path d="M3.57325 50.4373V27.8773H6.48525V50.4373H3.57325ZM20.4463 50.4373L11.4223 27.8773H14.2703L23.2943 50.4373H20.4463ZM10.8783 50.4373V27.8773H13.7903V50.4373H10.8783ZM21.2143 50.4373V27.8773H24.1263V50.4373H21.2143ZM37.092 45.3813C37.092 44.592 36.868 43.8987 36.42 43.3013C35.972 42.6827 35.396 42.1067 34.692 41.5733C33.988 41.04 33.2307 40.496 32.42 39.9413C31.6307 39.3867 30.884 38.7787 30.18 38.1173C29.476 37.456 28.9 36.7093 28.452 35.8773C28.004 35.024 27.78 34.0427 27.78 32.9333H30.692C30.692 33.7013 30.916 34.3947 31.364 35.0133C31.812 35.6107 32.388 36.1867 33.092 36.7413C33.796 37.2747 34.5427 37.8187 35.332 38.3733C36.1427 38.928 36.9 39.536 37.604 40.1973C38.308 40.8373 38.884 41.584 39.332 42.4373C39.78 43.2693 40.004 44.2507 40.004 45.3813H37.092ZM27.78 32.9973C27.78 31.824 28.0467 30.8213 28.58 29.9893C29.1133 29.1573 29.86 28.5173 30.82 28.0693C31.78 27.6213 32.8787 27.3973 34.116 27.3973V29.8933C33.0493 29.8933 32.2067 30.1707 31.588 30.7253C30.9907 31.28 30.692 32.0373 30.692 32.9973H27.78ZM40.004 45.3173C40.004 46.4693 39.7373 47.472 39.204 48.3253C38.6707 49.1573 37.924 49.7973 36.964 50.2453C36.0253 50.6933 34.9267 50.9173 33.668 50.9173V48.3893C34.7347 48.3893 35.5667 48.1227 36.164 47.5893C36.7827 47.0347 37.092 46.2773 37.092 45.3173H40.004ZM37.124 32.7093C37.0173 31.7493 36.676 31.0453 36.1 30.5973C35.5453 30.128 34.884 29.8933 34.116 29.8933V27.3973C35.1187 27.3973 36.0253 27.6 36.836 28.0053C37.6467 28.4107 38.3187 28.9653 38.852 29.6693C39.3853 30.3733 39.716 31.2053 39.844 32.1653L37.124 32.7093ZM29.828 44.1013C29.956 45.4453 30.3507 46.5013 31.012 47.2693C31.6947 48.016 32.58 48.3893 33.668 48.3893V50.9173C31.8547 50.9173 30.372 50.3627 29.22 49.2533C28.0893 48.144 27.4067 46.608 27.172 44.6453L29.828 44.1013ZM45.1725 30.4053V27.8773H48.4365V30.4053H45.1725ZM45.1725 41.7653V39.2373H48.4365V41.7653H45.1725ZM51.8285 35.7813V33.8613H54.7405V35.7813H51.8285ZM54.7405 33.8613H51.8285C51.8285 32.752 51.5192 31.8987 50.9005 31.3013C50.3032 30.704 49.4712 30.4053 48.4045 30.4053V27.8773C49.6632 27.8773 50.7618 28.1333 51.7005 28.6453C52.6605 29.136 53.4072 29.84 53.9405 30.7573C54.4738 31.6533 54.7405 32.688 54.7405 33.8613ZM54.7405 35.7493C54.7405 36.944 54.4738 37.9893 53.9405 38.8853C53.4072 39.7813 52.6605 40.4853 51.7005 40.9973C50.7618 41.5093 49.6632 41.7653 48.4045 41.7653V39.2373C49.4712 39.2373 50.3032 38.928 50.9005 38.3093C51.5192 37.6907 51.8285 36.8373 51.8285 35.7493H54.7405ZM43.2845 50.4373V27.8773H46.1965V50.4373H43.2845ZM67.1963 44.9333V33.3493H70.1083V44.9333H67.1963ZM57.4683 44.9333V33.3493H60.3803V44.9333H57.4683ZM70.1083 33.3813H67.1963C67.1963 32.272 66.8869 31.4187 66.2683 30.8213C65.6709 30.224 64.8389 29.9253 63.7723 29.9253V27.3973C65.0309 27.3973 66.1296 27.6533 67.0683 28.1653C68.0283 28.656 68.7749 29.36 69.3083 30.2773C69.8416 31.1733 70.1083 32.208 70.1083 33.3813ZM57.4683 33.3813C57.4683 32.208 57.7349 31.1733 58.2683 30.2773C58.8016 29.36 59.5483 28.656 60.5083 28.1653C61.4683 27.6533 62.5669 27.3973 63.8043 27.3973V29.9253C62.7376 29.9253 61.8949 30.224 61.2763 30.8213C60.6789 31.4187 60.3803 32.272 60.3803 33.3813H57.4683ZM70.1083 44.9013C70.1083 46.096 69.8416 47.1413 69.3083 48.0373C68.7749 48.9333 68.0283 49.6373 67.0683 50.1493C66.1296 50.6613 65.0309 50.9173 63.7723 50.9173V48.3893C64.8389 48.3893 65.6709 48.0907 66.2683 47.4933C66.8869 46.8747 67.1963 46.0107 67.1963 44.9013H70.1083ZM57.4683 44.9013H60.3803C60.3803 46.0107 60.6789 46.8747 61.2763 47.4933C61.8949 48.0907 62.7376 48.3893 63.8043 48.3893V50.9173C62.5669 50.9173 61.4683 50.6613 60.5083 50.1493C59.5483 49.6373 58.8016 48.9333 58.2683 48.0373C57.7349 47.1413 57.4683 46.096 57.4683 44.9013Z" fill="#D3AF37"/>
<path d="M82.3925 50.4373L78.2965 39.4293H81.2725L85.3685 50.4373H82.3925ZM75.6725 40.8693V38.3733H78.9365V40.8693H75.6725ZM75.6725 30.4053V27.8773H78.9365V30.4053H75.6725ZM82.3285 34.9173V33.8293H85.2405V34.9173H82.3285ZM85.2405 33.8613H82.3285C82.3285 32.752 82.0192 31.8987 81.4005 31.3013C80.8032 30.704 79.9712 30.4053 78.9045 30.4053V27.8773C80.1632 27.8773 81.2618 28.1333 82.2005 28.6453C83.1605 29.136 83.9072 29.84 84.4405 30.7573C84.9738 31.6533 85.2405 32.688 85.2405 33.8613ZM85.2405 34.8853C85.2405 36.0587 84.9738 37.104 84.4405 38.0213C83.9072 38.9173 83.1605 39.6213 82.2005 40.1333C81.2618 40.624 80.1632 40.8693 78.9045 40.8693V38.3733C79.9712 38.3733 80.8032 38.064 81.4005 37.4453C82.0192 36.8267 82.3285 35.9733 82.3285 34.8853H85.2405ZM73.7845 50.4373V27.8773H76.6965V50.4373H73.7845ZM90.6815 45.9253V43.4293H98.8735V45.9253H90.6815ZM95.8335 27.8773L90.3295 50.4373H87.4495L92.9535 27.8773H95.8335ZM95.8975 27.8773L101.402 50.4373H98.5535L93.0175 27.8773H95.8975Z" fill="black"/>
</svg>
